<?xml version="1.0" standalone="no"?>
<!DOCTYPE svg PUBLIC "-//W3C//DTD SVG 20010904//EN"
 "http://www.w3.org/TR/2001/REC-SVG-20010904/DTD/svg10.dtd">
<svg version="1.0" xmlns="http://www.w3.org/2000/svg"
 width="24" height="24" viewBox="0 0 1280.000000 968.000000"
 preserveAspectRatio="xMidYMid meet">
<metadata>
Created by potrace 1.15, written by Peter Selinger 2001-2017
</metadata>
<g transform="translate(0.000000,968.000000) scale(0.100000,-0.100000)"
fill="#2188FF" stroke="none">
<path d="M7145 9650 c-25 -48 -81 -106 -185 -190 -224 -181 -310 -325 -310
-515 0 -175 74 -336 241 -525 39 -44 68 -84 65 -89 -3 -5 10 -28 29 -52 21
-27 35 -55 35 -73 0 -16 14 -51 31 -78 43 -71 85 -207 100 -322 12 -100 8
-391 -9 -611 -8 -96 -30 -165 -52 -165 -5 0 -32 20 -60 45 -28 25 -131 105
-228 179 -216 162 -352 275 -352 291 0 6 -25 53 -56 105 -59 96 -84 161 -84
214 0 52 44 130 122 218 41 46 83 96 93 112 l19 29 -24 -8 c-91 -28 -223 -105
-302 -176 -34 -31 -41 -45 -68 -154 -46 -179 -49 -224 -17 -278 39 -67 160
-191 360 -370 258 -231 327 -322 327 -433 0 -42 -5 -55 -26 -75 -29 -27 -56
-73 -52 -89 2 -6 -21 -21 -51 -34 -31 -13 -49 -26 -42 -30 6 -4 11 -14 11 -21
0 -15 -259 -193 -338 -234 -24 -12 -53 -38 -66 -60 -27 -42 -71 -81 -92 -81
-7 0 -18 -17 -24 -37 -16 -50 -54 -115 -91 -158 -23 -26 -30 -42 -27 -67 3
-28 0 -33 -21 -36 -35 -5 -189 156 -341 358 -68 91 -172 215 -232 277 -59 61
-123 136 -142 166 -130 203 -90 456 87 548 63 32 78 53 55 75 -23 23 -89 30
-99 11 -5 -8 -40 -27 -78 -42 -82 -31 -131 -65 -209 -144 -48 -49 -61 -69 -76
-122 -28 -103 -33 -105 -126 -52 -43 24 -134 68 -202 97 -125 54 -560 223
-633 246 -176 55 -241 186 -171 345 49 110 101 179 159 210 28 16 107 62 175
102 220 131 385 208 642 300 286 102 349 148 352 257 0 23 -7 59 -17 80 -19
39 -62 79 -79 73 -6 -2 -18 -35 -26 -73 -9 -38 -22 -79 -28 -91 -20 -37 -73
-69 -167 -101 -501 -169 -643 -220 -720 -256 -59 -28 -154 -91 -275 -180 -260
-192 -316 -248 -331 -334 -5 -25 -17 -55 -27 -64 -16 -17 -23 -14 -127 63
-124 92 -197 158 -229 209 -25 38 -95 213 -120 299 -21 73 -20 181 3 261 10
36 50 140 90 231 90 209 110 292 93 392 -16 94 -59 184 -118 247 -26 27 -50
50 -55 50 -4 0 1 -25 12 -55 69 -198 40 -332 -136 -625 -35 -58 -71 -122 -81
-142 -21 -45 -37 -47 -126 -17 -74 25 -282 137 -356 191 -54 40 -82 85 -102
163 -12 50 -43 100 -68 114 -18 10 -21 6 -31 -52 -36 -206 19 -288 303 -456
167 -99 227 -145 252 -193 8 -16 24 -69 34 -118 21 -100 27 -112 115 -260 35
-58 71 -129 82 -159 13 -38 29 -62 58 -85 22 -17 82 -71 134 -119 78 -72 113
-96 196 -136 67 -32 124 -68 166 -106 73 -65 109 -85 281 -154 67 -28 155 -63
193 -79 39 -16 113 -41 165 -57 52 -16 106 -39 120 -51 14 -13 66 -37 115 -54
115 -41 213 -90 295 -148 105 -75 290 -233 362 -310 60 -64 126 -158 117 -166
-2 -2 -42 3 -89 10 -160 26 -459 34 -792 23 -422 -16 -898 -15 -1023 0 -269
33 -524 90 -663 147 -46 19 -133 48 -195 65 -130 35 -191 66 -263 132 -69 62
-104 134 -115 234 -12 109 -5 135 57 205 35 39 57 75 64 102 5 22 30 80 55
127 60 116 61 154 3 203 -23 20 -45 36 -50 36 -4 0 -15 -11 -24 -25 -12 -19
-15 -37 -10 -73 8 -62 -11 -93 -103 -167 -55 -44 -73 -66 -81 -95 -6 -21 -33
-66 -61 -101 -53 -66 -99 -150 -99 -182 0 -17 -1 -17 -31 0 -56 32 -100 95
-175 248 -56 115 -89 170 -145 235 -39 47 -81 105 -94 130 -38 74 -107 127
-220 169 -75 29 -157 31 -205 6 l-35 -18 55 -17 c167 -50 250 -150 364 -437
80 -200 102 -240 174 -315 42 -44 55 -65 56 -90 1 -28 14 -42 96 -111 270
-224 551 -363 881 -433 68 -15 135 -35 149 -45 14 -10 54 -25 90 -34 36 -9 72
-23 80 -30 9 -8 60 -18 117 -24 95 -10 153 -25 153 -41 0 -4 -102 -42 -227
-85 -334 -114 -649 -226 -819 -290 -96 -37 -181 -62 -239 -71 -49 -7 -148 -25
-220 -39 -82 -16 -184 -28 -276 -32 -133 -5 -163 -3 -350 27 l-204 32 -205
102 c-201 100 -375 167 -435 166 -16 -1 -41 -7 -53 -14 l-24 -13 24 -15 c12
-8 64 -30 113 -49 55 -21 150 -73 241 -131 82 -53 177 -109 209 -126 190 -95
485 -136 805 -112 145 10 432 43 509 57 l34 6 -41 -54 c-22 -30 -74 -112 -116
-182 -120 -204 -151 -235 -324 -322 -138 -70 -191 -85 -296 -85 -95 0 -134
-11 -106 -30 33 -22 100 -34 200 -34 95 0 115 4 205 36 148 52 247 95 302 131
77 50 162 144 262 292 224 329 313 384 931 571 567 172 811 209 1385 208 275
0 339 -3 455 -21 256 -40 307 -65 515 -250 178 -158 281 -309 320 -471 18 -72
18 -75 -3 -175 -12 -56 -36 -176 -52 -267 -44 -237 -66 -313 -102 -365 -31
-44 -33 -51 -39 -173 -7 -133 -13 -174 -78 -568 -50 -303 -68 -448 -81 -649
-12 -177 -8 -271 22 -515 30 -253 39 -287 123 -455 41 -82 81 -179 90 -215 17
-76 19 -208 4 -295 l-10 -62 -120 -94 c-66 -52 -143 -106 -172 -121 -49 -25
-293 -90 -467 -124 -41 -8 -151 -21 -245 -29 -192 -17 -400 -57 -585 -110
-262 -76 -407 -146 -648 -309 -197 -133 -308 -195 -416 -231 -89 -30 -278 -58
-328 -49 -31 6 -32 6 -16 -11 26 -28 114 -47 248 -52 289 -11 486 58 844 297
238 159 335 200 509 215 l77 7 0 -210 0 -211 -42 -12 c-65 -19 -76 -31 -42
-46 70 -30 161 -8 222 52 41 41 42 45 41 99 -2 50 2 61 40 118 34 50 42 70 40
100 -6 76 50 102 353 164 266 54 311 65 627 155 269 77 318 97 400 168 67 57
140 105 149 96 3 -3 -3 -70 -13 -148 -11 -78 -20 -194 -20 -258 0 -113 1 -117
37 -190 47 -96 128 -180 283 -294 358 -264 388 -290 451 -384 26 -39 27 -45
15 -78 -16 -43 -5 -58 38 -48 85 18 108 137 51 253 -35 69 -158 192 -283 282
-42 30 -76 58 -77 61 0 3 24 2 52 -1 66 -9 259 4 398 25 58 9 163 17 233 17
125 0 130 -1 156 -26 32 -30 71 -35 71 -8 0 24 -28 63 -73 101 -36 32 -41 33
-140 38 -63 3 -154 -1 -239 -11 -75 -9 -174 -16 -220 -16 -74 0 -94 4 -185 41
-76 30 -111 50 -134 77 -29 33 -31 39 -27 101 3 54 15 89 60 191 55 121 82
205 72 222 -18 28 52 -6 152 -74 140 -94 332 -167 829 -313 105 -31 219 -67
255 -80 41 -15 107 -28 178 -35 237 -23 353 -50 697 -162 l250 -82 90 -92
c105 -107 132 -125 151 -100 6 9 15 38 18 64 4 26 9 63 12 83 5 31 1 40 -30
70 -20 19 -60 49 -89 66 -28 17 -91 53 -139 82 -48 28 -96 51 -106 51 -24 0
-109 30 -193 68 -37 17 -119 42 -182 56 -110 24 -169 45 -181 65 -3 4 41 11
97 14 101 6 134 12 437 81 258 59 367 66 628 40 l62 -7 -8 24 c-11 29 -61 65
-111 79 -154 44 -398 38 -766 -19 -414 -64 -578 -70 -765 -27 -36 8 -90 17
-120 19 -30 3 -83 16 -116 31 -34 14 -97 31 -140 38 -85 13 -108 25 -236 121
-196 147 -495 484 -680 765 -63 97 -168 311 -207 423 -78 227 -111 512 -91
796 31 451 167 1078 320 1483 93 246 221 505 254 516 10 3 46 34 80 68 50 50
78 69 161 104 55 24 114 54 130 66 51 39 370 122 610 158 62 9 192 13 420 12
336 0 503 -11 605 -40 80 -23 375 -175 461 -237 41 -30 88 -62 106 -70 41 -22
59 -46 123 -167 29 -56 63 -108 74 -116 12 -8 66 -47 121 -86 55 -39 155 -98
222 -130 121 -60 121 -60 230 -65 84 -4 122 -2 167 11 62 18 106 53 106 84 0
18 -3 18 -72 6 -111 -20 -130 -17 -238 30 -236 104 -360 226 -360 354 0 34 1
34 33 29 17 -4 68 -13 112 -21 159 -29 330 -39 588 -33 277 6 417 22 601 67
213 53 392 39 599 -45 103 -42 117 -51 177 -114 44 -46 78 -73 104 -81 37 -12
139 -10 153 3 9 10 -24 43 -72 72 -25 14 -56 45 -75 74 -67 106 -92 122 -282
185 -95 32 -176 61 -181 65 -15 15 80 70 154 89 41 11 133 36 204 56 235 66
498 107 687 105 144 0 188 -10 237 -48 46 -37 71 -35 71 5 0 41 -65 98 -142
122 -202 66 -480 56 -888 -33 -85 -18 -200 -42 -255 -53 -66 -13 -144 -39
-232 -76 -152 -65 -216 -82 -333 -91 -47 -3 -112 -15 -145 -25 -98 -31 -255
-45 -505 -45 -210 0 -246 3 -340 23 -297 66 -518 142 -605 207 -16 12 -52 25
-80 29 -27 5 -90 28 -139 53 -113 57 -133 62 -402 118 -223 45 -294 62 -294
70 0 3 33 21 73 41 92 46 161 93 317 214 353 275 475 318 955 341 168 8 239
15 265 27 24 11 82 18 190 22 136 5 162 4 210 -13 64 -22 251 -37 360 -29 63
4 86 11 149 46 63 35 104 76 90 90 -2 3 -31 -5 -64 -17 -52 -18 -82 -21 -215
-21 -137 0 -161 2 -212 22 -92 37 -91 46 7 76 125 39 263 114 407 220 112 82
133 94 180 100 29 4 60 11 68 16 13 8 12 11 -5 24 -79 59 -250 22 -393 -86
-82 -63 -102 -74 -189 -109 -43 -17 -110 -48 -148 -69 -168 -91 -366 -129
-815 -154 -146 -9 -302 -18 -347 -20 l-81 -5 23 54 c137 308 313 547 440 594
120 45 287 52 540 22 162 -19 180 -17 246 29 50 37 38 45 -69 46 -65 1 -142
11 -232 30 -105 22 -162 28 -258 29 l-124 0 46 42 c49 44 196 121 330 172 202
78 362 99 846 111 497 12 519 14 559 50 35 32 33 63 -3 56 -116 -24 -301 -22
-416 4 -80 18 -126 21 -287 21 -212 -1 -328 -14 -543 -63 -248 -56 -473 -146
-643 -257 -101 -66 -160 -122 -255 -240 -42 -53 -122 -143 -177 -201 -67 -69
-130 -149 -186 -235 -47 -71 -120 -182 -161 -245 -136 -207 -242 -303 -381
-350 -101 -33 -122 -44 -233 -117 -134 -87 -208 -109 -549 -168 -258 -44 -412
-78 -528 -116 -49 -16 -101 -29 -116 -29 -51 0 -175 -37 -277 -83 -55 -25
-120 -50 -145 -57 -24 -6 -60 -27 -79 -45 -37 -34 -71 -55 -91 -55 -17 0 -4
81 22 132 33 64 129 158 280 274 223 170 303 259 421 469 28 50 63 104 78 120
75 81 148 303 180 541 13 99 9 309 -9 433 -14 95 -2 172 39 253 66 129 172
234 300 297 90 45 145 56 255 52 214 -7 247 -5 308 18 53 21 117 64 117 79 0
4 -89 7 -198 7 -108 1 -215 4 -237 9 -38 7 -39 8 -20 23 11 9 65 37 120 64
108 52 276 104 448 139 103 21 111 21 170 5 81 -21 228 -31 253 -17 17 9 15
13 -22 50 -60 61 -125 77 -299 76 -171 -1 -257 -18 -514 -103 -101 -34 -188
-61 -195 -61 -6 0 -37 -19 -68 -43 -32 -23 -115 -74 -185 -112 -99 -53 -143
-84 -193 -135 -36 -36 -85 -79 -109 -95 -31 -21 -47 -40 -53 -62 -9 -33 -41
-63 -68 -62 -9 0 -30 32 -52 77 -22 47 -68 114 -117 172 -44 52 -113 135 -155
183 -95 113 -146 213 -146 288 0 34 -6 63 -16 78 -15 21 -15 29 11 119 59 212
75 259 104 303 29 46 94 100 139 113 12 4 22 14 22 21 0 8 18 35 41 61 44 51
47 78 12 101 -20 14 -23 13 -38 -17z"/>
</g>
</svg>
